<?xml version="1.0" encoding="UTF-8" ?>
<!DOCTYPE svg PUBLIC "-//W3C//DTD SVG 1.1//EN" "http://www.w3.org/Graphics/SVG/1.1/DTD/svg11.dtd">
<svg width="742pt" height="1347pt" viewBox="0 0 742 1347" version="1.1" xmlns="http://www.w3.org/2000/svg">
<path fill="#ffffff" d=" M 0.00 0.00 L 742.00 0.00 L 742.00 1347.00 L 0.00 1347.00 L 0.00 0.00 Z" />
<path fill="#101011" d=" M 293.93 123.12 C 323.57 119.99 353.63 121.67 382.90 127.17 C 398.40 130.06 413.88 133.67 428.52 139.65 C 437.23 143.17 445.41 148.21 452.04 154.91 C 457.49 160.27 461.74 166.65 466.00 172.95 C 473.34 183.94 481.48 194.41 487.92 205.96 C 497.88 223.49 503.47 243.19 505.93 263.13 C 508.63 285.62 510.29 308.27 509.82 330.94 C 509.87 345.65 508.93 360.32 508.30 375.01 C 513.93 376.07 519.97 378.79 522.36 384.37 C 525.37 391.47 526.06 399.32 526.23 406.96 C 526.53 419.88 521.69 432.13 517.14 443.99 C 513.93 451.47 510.91 459.22 505.87 465.70 C 499.94 471.84 491.37 474.36 483.37 476.54 C 481.29 485.11 479.59 493.91 475.66 501.88 C 467.87 516.51 454.67 527.52 440.09 535.02 C 427.35 541.52 414.39 547.67 401.05 552.86 C 403.08 554.75 406.46 554.60 408.79 556.25 C 414.27 559.66 420.40 562.13 425.11 566.64 C 436.46 573.93 447.83 581.20 459.20 588.45 C 460.38 589.13 460.90 590.46 461.66 591.54 C 466.07 595.04 469.55 599.52 473.48 603.52 C 485.55 616.94 496.94 631.08 506.29 646.56 C 512.82 657.50 518.51 669.29 520.18 682.06 C 522.63 700.31 521.02 718.78 519.22 737.02 C 516.68 759.57 512.99 782.01 507.98 804.16 C 505.33 817.13 498.82 828.84 492.18 840.14 C 491.27 841.81 489.97 843.22 488.55 844.49 C 487.53 862.03 486.03 879.55 483.61 896.96 C 483.08 901.94 481.74 906.92 482.52 911.95 C 484.50 926.61 486.50 941.26 488.39 955.92 C 488.18 967.20 487.71 978.49 487.69 989.78 C 488.11 990.30 488.95 991.33 489.37 991.85 C 489.73 993.59 487.73 994.49 487.61 996.11 C 486.45 1062.07 485.49 1128.04 484.32 1194.01 C 484.11 1195.85 485.03 1197.50 485.65 1199.19 C 503.95 1209.38 523.45 1217.87 539.74 1231.27 C 543.69 1234.19 545.89 1239.14 545.96 1243.97 C 545.37 1248.05 547.00 1252.06 546.45 1256.15 C 545.30 1258.00 543.03 1258.32 541.06 1258.48 C 519.47 1260.83 497.76 1263.13 476.01 1262.29 C 451.94 1260.83 427.97 1258.10 404.03 1255.27 C 401.93 1255.02 399.86 1254.62 397.81 1254.19 C 396.05 1249.55 396.72 1244.17 393.90 1239.93 C 390.52 1234.44 393.25 1227.45 390.23 1222.03 C 391.86 1217.79 392.02 1213.14 392.62 1208.68 C 389.75 1206.80 385.14 1205.25 385.65 1201.00 C 386.83 1193.89 390.94 1187.38 390.74 1179.99 C 390.97 1146.98 390.77 1113.96 390.54 1080.95 C 390.34 1063.46 390.60 1045.94 389.93 1028.47 C 362.15 1028.25 334.39 1027.17 306.61 1027.20 C 305.16 1068.80 303.45 1110.39 302.29 1152.01 C 302.12 1164.69 301.27 1177.36 301.72 1190.05 C 302.52 1195.64 306.60 1199.94 308.57 1205.08 C 309.63 1207.94 306.60 1209.32 305.00 1211.02 C 305.74 1214.64 309.42 1217.46 308.53 1221.38 C 308.46 1224.92 308.58 1228.47 308.20 1232.02 C 307.90 1233.78 309.51 1235.15 309.44 1236.92 C 309.34 1241.00 308.74 1245.06 308.44 1249.14 C 308.51 1251.29 306.29 1252.26 304.59 1252.88 C 294.99 1256.40 285.09 1259.17 274.92 1260.34 C 260.34 1262.17 245.54 1263.34 230.89 1261.67 C 219.21 1260.61 207.61 1258.77 196.03 1256.93 C 193.58 1256.45 191.01 1256.33 188.70 1255.29 C 187.33 1254.05 187.00 1252.12 186.25 1250.54 C 185.01 1247.18 183.01 1243.77 183.89 1240.07 C 185.13 1235.99 188.49 1233.02 191.87 1230.66 C 202.90 1222.87 214.16 1215.41 225.32 1207.81 C 224.69 1207.67 223.43 1207.39 222.80 1207.25 C 221.65 1205.75 221.19 1203.94 221.14 1202.10 C 215.31 1123.13 209.55 1044.16 203.65 965.20 C 203.18 964.91 202.22 964.32 201.75 964.03 C 200.31 953.40 199.99 942.66 198.84 932.01 C 198.32 927.50 198.67 922.84 197.39 918.46 C 192.69 908.50 187.36 898.23 187.35 886.94 C 187.19 871.97 188.69 857.06 189.75 842.16 C 186.24 842.27 182.22 842.16 179.54 839.55 C 175.73 835.89 172.83 831.42 169.93 827.04 C 160.99 812.70 153.05 797.18 150.54 780.29 C 147.72 759.33 148.33 738.06 149.75 717.01 C 151.76 694.33 154.56 671.30 163.32 650.10 C 173.45 625.35 187.35 602.34 202.11 580.12 C 202.81 578.77 203.15 577.27 203.67 575.86 C 223.78 566.54 243.80 557.03 263.84 547.56 C 263.78 547.39 263.67 547.06 263.61 546.89 C 247.23 537.63 231.74 526.82 217.20 514.90 C 211.09 509.63 204.73 504.45 200.11 497.76 C 194.99 490.92 191.74 482.93 189.43 474.76 C 179.95 469.21 170.60 462.96 163.43 454.52 C 159.09 449.57 157.14 443.13 155.56 436.87 C 152.86 425.10 151.20 413.04 151.14 400.96 C 151.12 396.29 150.92 391.34 153.26 387.11 C 156.77 380.34 162.28 374.24 169.40 371.22 C 168.07 349.82 167.37 328.39 167.13 306.95 C 166.36 293.30 167.10 279.64 167.35 265.99 C 167.94 253.86 168.44 241.56 171.89 229.84 C 177.97 208.86 187.92 189.16 199.74 170.87 C 205.39 162.05 212.16 153.64 221.26 148.18 C 243.52 135.22 268.15 125.68 293.93 123.12 Z" />
<path fill="#b39979" d=" M 298.94 127.44 C 322.73 125.28 346.76 126.37 370.36 129.89 C 387.10 132.52 403.80 135.90 419.85 141.43 C 429.73 144.86 439.45 149.48 447.10 156.77 C 452.92 162.11 457.40 168.67 461.77 175.19 C 468.29 184.97 475.45 194.33 481.52 204.41 C 492.03 221.66 498.21 241.27 500.82 261.24 C 503.11 278.40 504.38 295.70 505.01 312.99 C 505.76 325.34 504.72 337.68 504.62 350.03 C 504.56 358.15 503.72 366.24 503.48 374.36 C 499.91 374.59 496.99 376.61 494.07 378.44 C 493.69 378.24 492.93 377.86 492.55 377.67 C 489.62 364.48 487.45 351.12 484.71 337.89 C 483.79 334.19 485.13 330.49 485.57 326.83 C 487.13 315.94 488.47 304.98 488.72 293.96 C 489.08 281.88 488.89 269.59 485.54 257.88 C 480.81 241.54 473.35 226.14 465.42 211.14 C 457.91 197.50 450.11 183.89 440.32 171.74 C 430.83 160.90 419.65 150.88 405.95 145.82 C 398.05 142.78 389.19 142.39 381.05 144.69 C 373.49 146.76 366.20 149.82 358.43 151.09 C 347.93 152.93 337.91 158.83 326.97 156.98 C 317.45 155.55 310.93 147.83 303.30 142.74 C 294.96 136.64 283.98 135.90 274.04 136.97 C 260.43 138.82 249.09 147.25 239.10 156.10 C 225.93 168.04 213.78 181.33 204.74 196.72 C 198.14 207.93 194.47 220.54 191.49 233.12 C 188.51 246.26 186.34 259.59 185.05 273.01 C 184.88 276.08 183.33 278.88 183.32 281.96 C 182.23 305.34 181.01 328.70 180.14 352.08 C 179.71 352.56 178.85 353.51 178.42 353.99 C 178.47 359.95 178.52 365.94 179.34 371.86 C 177.65 371.67 175.97 371.50 174.29 371.32 C 173.56 365.58 173.54 359.78 173.32 354.00 C 172.11 327.40 171.36 300.77 171.81 274.14 C 172.61 260.36 172.43 246.35 176.00 232.91 C 181.42 213.18 190.53 194.64 201.27 177.29 C 207.18 167.87 213.72 158.30 223.45 152.43 C 246.45 138.91 272.19 129.38 298.94 127.44 Z" />
<path fill="#fce6dd" d=" M 242.00 160.04 C 251.48 151.71 262.07 143.39 275.01 141.76 C 283.85 140.87 293.65 141.49 300.99 147.06 C 308.67 152.48 315.60 159.95 325.26 161.63 C 333.66 163.47 342.09 160.88 350.03 158.32 C 357.65 155.80 365.73 155.07 373.26 152.22 C 381.17 149.38 389.63 146.98 398.09 148.63 C 410.28 151.27 420.81 158.77 429.53 167.42 C 440.25 177.49 447.73 190.33 455.20 202.84 C 464.58 219.24 473.23 236.18 479.29 254.11 C 482.45 263.42 483.93 273.24 483.88 283.06 C 484.29 301.46 482.05 319.81 478.77 337.89 C 478.01 339.68 479.12 340.91 480.46 341.92 C 483.09 354.90 485.77 367.90 487.92 380.98 C 483.39 385.10 479.00 389.39 474.30 393.31 C 471.96 395.56 468.52 394.33 465.66 394.34 C 463.91 389.26 461.58 383.86 456.77 380.99 C 451.33 377.79 445.03 376.46 438.87 375.49 C 430.36 374.93 421.82 374.08 413.30 374.96 C 396.39 376.46 378.97 377.06 363.08 383.63 C 355.29 386.26 346.69 390.94 345.06 399.79 C 341.36 399.04 337.73 397.81 333.94 397.59 C 330.08 397.34 326.31 398.37 322.52 398.91 C 321.29 391.74 315.37 386.72 308.92 384.14 C 300.58 380.71 291.98 377.68 282.98 376.62 C 264.75 374.26 246.25 372.04 227.90 374.29 C 221.80 375.32 215.54 376.66 210.23 379.99 C 204.74 383.66 202.45 390.34 201.02 396.49 C 198.79 396.37 196.10 396.44 194.56 394.52 C 191.08 390.27 187.79 385.84 184.79 381.24 C 184.12 378.56 184.38 375.74 184.13 373.01 C 183.97 368.37 182.81 363.58 184.49 359.09 C 185.70 337.40 186.54 315.69 187.60 293.99 C 187.94 288.34 187.56 282.52 189.43 277.10 C 191.09 261.25 193.38 245.42 197.27 229.95 C 200.05 219.08 203.49 208.22 209.31 198.55 C 217.99 184.01 229.53 171.40 242.00 160.04 Z" />
<path fill="#b39979" d=" M 246.43 331.55 C 259.25 328.87 272.12 333.15 284.30 336.80 C 288.48 338.43 294.07 338.96 296.18 343.53 C 297.90 348.06 292.98 352.96 288.44 351.35 C 276.90 347.78 265.28 343.12 253.01 343.25 C 242.68 344.42 233.29 349.43 224.20 354.16 C 221.45 355.49 217.54 355.17 215.84 352.36 C 213.27 349.43 215.11 344.84 218.28 343.21 C 227.11 338.16 236.50 333.88 246.43 331.55 Z" />
<path fill="#b39979" d=" M 407.59 336.88 C 413.37 335.84 419.31 335.66 425.12 336.63 C 435.59 338.24 445.91 340.79 456.04 343.87 C 458.84 344.55 461.38 346.98 461.42 349.98 C 461.82 354.21 456.85 357.39 453.02 355.98 C 442.11 353.05 431.20 349.77 419.91 348.66 C 408.82 347.96 398.28 352.16 387.91 355.44 C 383.55 357.07 378.49 352.46 379.99 348.01 C 380.70 345.22 383.43 343.78 385.95 342.92 C 393.00 340.40 400.21 338.24 407.59 336.88 Z" />
<path fill="#fce6dd" d=" M 170.91 378.59 C 172.97 379.25 173.96 377.41 174.98 376.05 C 175.76 380.55 178.83 384.16 180.15 388.46 C 180.81 393.58 180.64 398.78 181.27 403.91 C 178.68 399.90 174.82 396.47 170.10 395.32 C 167.61 394.64 164.67 395.60 163.82 398.22 C 162.78 403.08 162.86 408.08 162.96 413.03 C 163.59 410.89 164.18 408.75 164.81 406.62 C 165.63 404.06 166.26 401.13 168.62 399.50 C 172.12 401.04 175.61 403.24 177.27 406.85 C 178.93 410.35 180.42 414.03 180.90 417.91 C 176.71 423.66 173.48 430.04 170.20 436.33 C 168.51 439.77 170.75 443.53 173.37 445.76 C 176.59 448.09 180.67 448.86 184.58 448.86 C 185.47 455.31 185.98 461.83 187.68 468.15 C 178.77 462.54 169.49 456.37 164.04 447.11 C 159.47 437.21 158.11 426.21 156.70 415.51 C 156.16 407.87 154.89 400.10 156.28 392.49 C 158.14 385.65 163.40 380.29 169.07 376.31 C 169.53 376.88 170.45 378.02 170.91 378.59 Z" />
<path fill="#fce6dd" d=" M 231.61 378.93 C 244.72 377.19 257.94 378.64 271.02 379.88 C 280.88 381.05 290.91 382.09 300.20 385.84 C 306.63 388.27 314.64 390.65 317.26 397.75 C 318.93 404.75 317.18 412.22 313.73 418.42 C 311.88 421.45 309.57 424.63 306.08 425.86 C 300.64 427.88 294.82 428.50 289.10 429.24 C 274.76 430.62 260.24 431.19 245.88 429.62 C 235.93 428.15 226.03 425.59 216.96 421.17 C 212.08 418.71 206.82 415.27 205.62 409.54 C 204.29 402.30 205.44 394.56 209.06 388.13 C 210.20 386.03 211.96 384.29 214.09 383.22 C 219.52 380.47 225.57 379.26 231.61 378.93 Z" />
<path fill="#fce6dd" d=" M 401.39 380.68 C 412.23 379.80 423.15 378.52 434.00 380.05 C 441.73 380.65 450.15 381.56 456.37 386.64 C 461.30 392.77 463.04 401.15 462.24 408.87 C 461.74 413.51 458.82 417.48 454.91 419.92 C 446.34 425.42 436.33 428.09 426.46 430.15 C 415.11 432.28 403.48 431.82 392.00 431.57 C 382.35 431.00 372.60 430.42 363.25 427.81 C 356.92 426.37 353.47 420.12 351.36 414.52 C 349.44 408.77 348.14 401.84 351.52 396.38 C 355.63 390.75 362.74 388.87 368.95 386.55 C 379.31 382.61 390.49 381.97 401.39 380.68 Z" />
<path fill="#fce6dd" d=" M 494.57 387.32 C 496.74 384.39 497.83 380.31 501.97 379.54 C 507.39 378.91 513.79 380.41 517.30 384.85 C 520.72 391.30 521.21 398.87 521.50 406.04 C 522.05 417.17 518.18 427.83 514.41 438.11 C 511.17 446.29 507.92 454.60 502.94 461.91 C 498.27 467.38 490.93 469.33 484.35 471.51 C 488.41 449.15 490.84 426.55 492.81 403.93 C 493.40 398.39 493.44 392.79 494.57 387.32 Z" />
<path fill="#101011" d=" M 252.92 387.01 C 259.49 382.55 268.61 382.54 275.20 386.98 C 283.33 392.00 286.72 403.15 282.87 411.89 C 280.84 416.87 276.78 420.70 271.94 422.94 C 266.48 425.03 260.19 425.00 254.97 422.24 C 248.02 419.03 243.70 411.47 243.60 403.93 C 243.79 397.26 247.20 390.59 252.92 387.01 Z" />
<path fill="#101011" d=" M 393.43 390.26 C 398.76 385.00 407.00 384.12 413.93 386.11 C 423.16 389.30 428.93 399.47 427.29 409.05 C 426.80 410.33 426.39 411.65 425.96 412.95 C 422.99 420.47 415.15 425.90 407.01 425.61 C 399.27 425.90 392.06 420.93 388.62 414.16 C 388.02 412.11 387.42 410.08 386.75 408.06 C 386.11 404.31 387.72 400.76 387.81 397.04 C 387.84 400.41 388.58 403.70 390.77 406.33 C 391.23 408.45 391.33 410.67 392.14 412.70 C 395.37 417.69 401.16 420.79 407.04 421.23 C 411.67 420.96 415.63 417.94 418.51 414.50 C 421.40 410.99 422.39 405.48 419.40 401.72 C 415.80 397.34 410.43 393.50 404.45 394.52 C 404.32 394.52 404.06 394.52 403.92 394.52 C 401.08 390.16 394.67 389.38 390.65 392.56 C 391.58 391.80 392.51 391.03 393.43 390.26 Z" />
<path fill="#fce6dd" d=" M 475.76 398.09 C 480.25 395.01 484.00 391.03 487.99 387.37 C 484.43 391.36 480.92 395.44 476.89 398.97 C 473.92 400.76 470.24 400.19 466.94 400.68 C 466.83 400.36 466.59 399.71 466.47 399.38 C 469.56 399.21 473.08 400.10 475.76 398.09 Z" />
<path fill="#3d3d3d" d=" M 253.66 391.14 C 259.48 389.03 266.73 388.16 272.02 392.06 C 276.83 395.24 279.70 401.14 279.56 406.85 C 279.27 415.75 269.40 422.65 260.93 420.00 C 255.02 418.34 248.42 413.46 249.29 406.58 C 251.46 408.05 254.03 408.68 256.64 408.66 C 257.80 410.25 258.50 412.54 260.46 413.36 C 262.90 413.77 265.59 413.86 267.91 412.86 C 271.74 410.15 274.09 404.69 271.53 400.34 C 269.98 396.78 265.77 396.31 262.52 395.25 C 260.36 392.55 257.12 391.03 253.66 391.14 Z" />
<path fill="#fce6dd" d=" M 249.29 406.58 C 243.66 402.03 246.60 392.19 253.66 391.14 C 257.12 391.03 260.36 392.55 262.52 395.25 C 263.62 397.92 264.24 401.11 262.79 403.78 C 261.61 406.28 259.06 407.63 256.64 408.66 C 254.03 408.68 251.46 408.05 249.29 406.58 Z" />
<path fill="#101011" d=" M 495.68 395.41 C 496.75 393.19 499.49 392.58 501.75 392.82 C 506.37 393.43 510.70 395.31 514.94 397.18 C 510.30 396.31 505.50 395.57 500.84 396.68 C 499.61 397.52 499.33 399.01 499.00 400.35 C 497.80 405.92 497.48 411.61 496.84 417.25 C 502.76 419.63 509.99 422.37 512.33 428.89 C 510.61 434.99 508.05 440.93 504.15 445.97 C 501.30 450.29 491.24 450.41 491.35 443.97 C 490.95 432.97 491.73 421.96 492.62 411.00 C 493.46 405.77 493.49 400.31 495.68 395.41 Z" />
<path fill="#fce6dd" d=" M 480.33 402.30 C 483.38 399.72 485.94 396.62 488.74 393.78 C 487.46 413.96 485.20 434.08 482.41 454.11 C 480.54 466.29 478.53 478.50 475.05 490.35 C 471.34 504.19 461.26 515.47 449.80 523.64 C 440.24 530.33 429.54 535.11 419.00 540.02 C 399.36 549.42 378.49 556.26 357.11 560.40 C 337.26 564.21 316.19 564.14 297.05 557.08 C 268.63 546.32 242.61 529.92 219.33 510.52 C 212.88 505.13 206.50 499.42 202.02 492.22 C 196.97 484.68 194.52 475.82 192.39 467.10 C 190.56 460.54 190.05 453.72 189.36 446.97 C 188.39 430.93 186.45 414.97 185.68 398.91 C 187.22 401.15 188.39 403.72 190.44 405.56 C 193.29 407.72 197.03 407.92 200.45 408.28 C 201.25 414.60 205.36 419.92 210.74 423.12 C 220.51 429.09 231.80 431.97 242.95 434.04 C 252.91 435.45 263.01 435.38 273.05 435.15 C 284.12 434.52 295.34 434.03 306.06 430.92 C 315.03 428.39 319.66 419.03 321.79 410.66 C 325.66 408.77 329.98 407.16 334.35 408.02 C 338.29 408.41 341.63 410.78 345.49 411.48 C 347.26 418.37 350.36 425.39 356.16 429.79 C 360.32 432.49 365.35 433.31 370.14 434.22 C 384.64 436.48 399.37 436.88 414.03 436.36 C 424.85 435.85 435.54 433.43 445.71 429.74 C 452.02 427.26 458.51 424.31 463.00 419.03 C 466.26 415.18 467.11 409.98 467.31 405.10 C 471.72 405.16 476.78 405.40 480.33 402.30 Z" />
<path fill="#2d5770" d=" M 262.52 395.25 C 265.77 396.31 269.98 396.78 271.53 400.34 C 274.09 404.69 271.74 410.15 267.91 412.86 C 265.59 413.86 262.90 413.77 260.46 413.36 C 258.50 412.54 257.80 410.25 256.64 408.66 C 259.06 407.63 261.61 406.28 262.79 403.78 C 264.24 401.11 263.62 397.92 262.52 395.25 Z" />
<path fill="#3d3d3d" d=" M 404.45 394.52 C 410.43 393.50 415.80 397.34 419.40 401.72 C 422.39 405.48 421.40 410.99 418.51 414.50 C 415.63 417.94 411.67 420.96 407.04 421.23 C 401.16 420.79 395.37 417.69 392.14 412.70 C 391.33 410.67 391.23 408.45 390.77 406.33 C 393.65 407.73 396.82 408.13 399.98 407.61 C 401.15 409.85 401.93 413.15 405.00 413.33 C 407.66 413.38 410.86 412.53 412.22 410.03 C 412.74 407.69 412.44 404.98 410.90 403.08 C 409.30 401.95 407.21 401.88 405.39 401.34 C 405.27 399.04 404.87 396.77 404.45 394.52 Z" />
<path fill="#fce6dd" d=" M 193.93 402.17 C 192.02 400.78 191.09 398.50 190.27 396.37 C 190.82 397.24 191.37 398.13 191.91 399.02 C 194.53 400.41 197.43 401.10 200.36 401.45 C 200.32 401.99 200.24 403.06 200.20 403.59 C 198.09 403.24 195.90 403.04 193.93 402.17 Z" />
<path fill="#3d3d3d" d=" M 162.96 413.03 C 162.86 408.08 162.78 403.08 163.82 398.22 C 163.62 401.06 163.69 403.95 164.81 406.62 C 164.18 408.75 163.59 410.89 162.96 413.03 Z" />
<path fill="#fce6dd" d=" M 322.01 404.67 C 329.07 401.06 337.41 402.37 344.66 404.77 C 344.65 405.21 344.65 406.08 344.65 406.52 C 340.46 404.30 335.80 402.91 331.03 403.12 C 327.93 403.05 325.06 404.38 322.01 404.67 Z" />
<path fill="#2d5770" d=" M 399.98 407.61 C 402.32 406.03 404.20 403.91 405.39 401.34 C 407.21 401.88 409.30 401.95 410.90 403.08 C 412.44 404.98 412.74 407.69 412.22 410.03 C 410.86 412.53 407.66 413.38 405.00 413.33 C 401.93 413.15 401.15 409.85 399.98 407.61 Z" />
<path fill="#fce6dd" d=" M 496.60 421.74 C 501.73 422.98 508.76 422.55 511.72 427.75 C 511.45 431.84 508.35 434.92 505.95 437.96 C 503.25 440.77 500.62 444.64 496.22 444.36 C 495.50 436.84 496.34 429.27 496.60 421.74 Z" />
<path fill="#fce6dd" d=" M 170.31 437.02 C 173.44 431.73 178.20 427.68 182.28 423.16 C 182.97 430.20 184.29 437.35 183.61 444.42 C 179.79 443.63 176.17 442.18 172.55 440.79 C 170.83 440.51 169.45 438.73 170.31 437.02 Z" />
<path fill="#101011" d=" M 281.49 481.49 C 283.31 481.25 285.15 481.09 286.99 481.23 C 302.67 482.13 318.32 483.47 334.02 483.73 C 333.26 483.92 332.50 484.09 331.73 484.24 C 322.94 484.43 314.10 484.29 305.39 485.62 C 306.58 485.10 307.79 484.64 309.01 484.17 C 306.75 484.35 304.50 484.43 302.24 484.49 L 302.94 485.25 C 298.38 485.40 293.83 485.47 289.28 485.63 C 296.99 492.75 305.22 499.40 314.23 504.83 C 320.10 508.41 326.56 511.44 333.51 511.96 L 334.27 512.03 C 330.82 512.62 327.43 511.64 324.19 510.59 C 308.86 505.52 295.44 496.11 282.97 486.07 C 281.26 485.10 281.12 483.22 281.49 481.49 Z" />
<path fill="#101011" d=" M 354.99 482.71 C 366.79 482.18 378.55 480.26 390.37 480.51 C 390.58 481.84 391.37 483.64 389.96 484.60 C 379.35 493.01 368.04 500.69 355.79 506.55 C 349.75 509.07 343.61 512.05 336.93 512.18 C 337.28 512.10 337.99 511.93 338.34 511.84 C 344.06 510.73 349.55 508.61 354.57 505.65 C 364.78 499.82 374.08 492.55 382.88 484.80 C 367.26 484.65 351.63 484.08 336.01 484.16 C 342.28 483.06 348.69 483.67 354.99 482.71 Z" />
<path fill="#ffffff" d=" M 302.24 484.49 C 304.50 484.43 306.75 484.35 309.01 484.17 C 307.79 484.64 306.58 485.10 305.39 485.62 C 314.10 484.29 322.94 484.43 331.73 484.24 C 333.15 484.21 334.58 484.19 336.01 484.16 C 351.63 484.08 367.26 484.65 382.88 484.80 C 374.08 492.55 364.78 499.82 354.57 505.65 C 349.55 508.61 344.06 510.73 338.34 511.84 C 336.73 511.94 335.12 511.96 333.51 511.96 C 326.56 511.44 320.10 508.41 314.23 504.83 C 305.22 499.40 296.99 492.75 289.28 485.63 C 293.83 485.47 298.38 485.40 302.94 485.25 L 302.24 484.49 Z" />
<path fill="#101011" d=" M 316.24 519.63 C 327.03 523.19 338.79 523.42 349.94 521.72 C 344.58 524.12 339.03 526.89 333.03 526.90 C 326.93 525.93 321.59 522.51 316.24 519.63 Z" />
<path fill="#fce6dd" d=" M 267.79 550.94 C 269.81 549.48 271.91 551.22 273.76 552.05 C 288.55 559.63 304.31 566.03 321.03 567.34 C 345.90 569.61 370.50 563.22 393.94 555.57 C 395.60 556.51 397.38 557.19 399.17 557.84 C 385.59 567.84 370.96 576.49 355.71 583.72 C 344.31 588.83 331.77 593.80 319.08 591.16 C 304.96 587.93 292.41 580.21 280.56 572.18 C 273.15 566.99 265.88 561.55 259.17 555.48 C 261.40 553.25 265.04 552.56 267.79 550.94 Z" />
<path fill="#3d3d3d" d=" M 250.31 559.59 C 251.66 558.91 253.02 558.23 254.38 557.57 C 260.45 564.26 268.02 569.38 275.19 574.80 C 288.62 584.04 302.81 593.16 319.03 596.40 C 328.61 598.85 338.46 595.81 347.52 592.71 C 365.07 586.07 381.25 576.30 396.78 565.88 C 399.64 564.06 402.14 561.68 405.22 560.24 C 407.62 560.80 409.61 562.34 411.70 563.56 C 392.27 574.44 373.20 585.97 353.55 596.45 C 346.67 600.35 338.80 601.93 331.01 602.70 C 324.72 603.81 318.31 603.84 311.95 603.61 C 308.86 603.56 305.99 602.19 303.45 600.54 C 284.97 587.92 267.90 573.39 250.31 559.59 Z" />
<path fill="#3d3d3d" d=" M 234.17 567.26 C 237.81 565.75 241.11 563.47 244.88 562.28 C 245.74 562.70 246.53 563.22 247.27 563.84 C 262.26 576.59 277.71 588.80 293.58 600.44 C 298.44 603.80 303.25 607.63 309.15 608.93 C 317.80 610.62 326.56 608.86 335.15 607.72 C 343.24 606.87 351.10 604.29 358.17 600.28 C 372.72 592.26 387.10 583.92 401.47 575.57 C 406.32 572.84 410.87 569.51 415.98 567.28 C 427.94 574.06 439.15 582.14 450.92 589.27 C 452.77 590.57 455.07 591.52 456.38 593.45 C 460.04 604.27 462.52 615.53 466.71 626.16 C 466.71 620.40 465.15 614.80 464.50 609.11 C 464.19 605.49 462.91 602.09 461.95 598.63 C 464.06 599.62 464.92 601.96 466.49 603.56 C 478.47 616.70 489.85 630.47 499.46 645.46 C 507.62 657.94 514.57 671.81 515.74 686.92 C 517.11 705.51 515.90 724.22 513.50 742.68 C 495.97 742.43 478.46 741.29 460.93 740.91 C 461.08 738.30 461.30 735.71 461.62 733.12 C 463.59 716.47 463.11 699.67 462.89 682.94 C 463.00 679.30 461.64 675.15 464.11 672.02 C 466.71 667.92 468.84 663.55 470.90 659.16 C 467.24 661.80 464.38 665.35 460.72 667.98 C 459.17 664.01 458.09 659.84 456.17 656.03 C 455.36 653.61 451.14 654.43 451.49 657.00 C 452.52 663.95 457.33 669.91 457.48 677.07 C 458.49 699.48 458.49 722.04 455.21 744.29 C 392.12 751.96 329.00 759.50 265.90 767.14 C 264.40 767.28 262.81 767.42 261.48 766.60 C 256.89 764.28 251.45 763.91 247.38 760.57 C 238.53 754.64 229.94 746.54 218.71 746.07 C 218.51 724.69 219.30 703.31 218.90 681.94 C 219.29 679.80 216.66 678.84 215.06 679.82 C 213.70 681.18 214.09 683.21 213.97 684.95 C 214.04 699.30 213.69 713.65 213.73 728.00 C 210.44 728.07 207.15 727.90 203.89 727.50 C 187.43 726.04 170.97 724.65 154.53 722.99 C 154.98 709.05 156.93 695.19 159.38 681.48 C 162.21 665.10 168.29 649.49 175.85 634.75 C 184.85 617.23 195.04 600.32 206.22 584.10 C 207.96 587.59 209.29 591.32 211.46 594.58 C 213.00 597.13 217.87 594.88 216.42 591.96 C 214.47 587.38 213.28 581.40 208.31 579.16 C 217.24 575.88 225.40 570.89 234.17 567.26 Z" />
<path fill="#fce6dd" d=" M 154.28 728.07 C 174.03 729.28 193.69 731.71 213.44 732.94 C 213.69 737.65 213.44 742.37 213.42 747.08 C 203.72 750.02 195.12 755.92 188.42 763.46 C 186.03 766.39 181.84 768.85 182.43 773.17 C 179.55 772.63 173.10 772.33 174.83 777.07 C 177.88 778.95 181.61 778.00 185.00 778.23 C 200.35 777.68 215.70 776.76 231.06 776.07 C 237.99 775.19 245.18 776.27 251.89 773.97 C 319.42 765.65 387.01 757.70 454.56 749.49 C 453.66 755.39 452.82 761.31 451.37 767.11 C 449.78 776.34 441.27 782.11 434.03 786.85 C 375.52 798.40 316.94 809.66 258.40 821.12 C 254.44 821.91 250.20 822.18 246.88 824.72 C 232.41 828.17 217.62 830.26 202.98 832.95 C 201.13 833.27 200.11 835.39 198.08 835.23 C 194.02 835.81 190.06 837.38 185.91 837.14 C 181.84 836.48 179.94 832.29 177.55 829.42 C 167.54 814.79 158.87 798.64 155.68 781.03 C 153.28 763.51 153.08 745.70 154.28 728.07 Z" />
<path fill="#fce6dd" d=" M 455.70 770.86 C 458.07 762.60 459.02 754.03 460.39 745.58 C 477.84 746.42 495.30 746.94 512.76 747.57 C 510.58 766.17 507.17 784.62 503.14 802.91 C 500.50 815.87 493.92 827.55 487.15 838.76 C 475.44 836.58 463.75 834.26 452.02 832.25 C 449.97 831.66 447.97 832.40 447.14 834.40 C 386.78 831.44 326.40 828.76 266.06 825.56 C 270.55 825.17 274.48 822.67 278.97 822.26 C 328.64 812.66 378.29 802.92 427.96 793.30 C 431.44 792.56 435.24 792.45 438.17 790.16 C 445.43 785.40 453.30 779.68 455.70 770.86 Z" />
<path fill="#fce6dd" d=" M 216.18 753.30 C 217.05 752.67 217.91 752.02 218.77 751.40 C 224.93 751.16 230.11 754.91 235.04 758.08 C 240.70 761.73 245.79 766.35 252.07 768.98 C 247.70 769.08 243.42 769.96 239.10 770.50 C 221.70 771.24 204.31 772.72 186.88 772.77 C 193.69 764.46 201.74 756.77 211.99 752.96 C 213.34 752.05 214.87 752.71 216.18 753.30 Z" />
<path fill="#3d3d3d" d=" M 244.63 830.51 C 246.74 830.05 248.91 829.93 251.07 830.07 C 318.04 833.29 385.02 836.40 451.99 839.81 C 457.29 840.44 462.65 839.70 467.94 840.36 C 473.18 841.46 478.51 842.18 483.68 843.62 C 482.46 857.20 481.16 870.77 480.04 884.36 C 479.02 891.38 478.59 898.59 476.38 905.36 C 451.36 908.60 426.11 909.82 401.00 912.33 C 388.30 912.62 375.70 914.46 363.00 914.60 C 341.39 916.19 319.69 915.72 298.04 915.85 C 272.35 915.82 246.66 915.69 220.97 915.09 C 214.45 914.52 207.91 914.66 201.37 914.49 C 197.67 907.31 194.42 899.78 192.83 891.84 C 192.20 882.56 192.57 873.23 193.35 863.98 C 193.82 856.40 194.14 848.80 195.15 841.28 C 197.52 840.47 199.67 839.15 201.99 838.23 C 216.22 835.74 230.50 833.52 244.63 830.51 Z" />
<path fill="#6f5d54" d=" M 445.55 913.82 C 456.20 913.13 466.78 911.47 477.45 911.18 C 478.11 917.81 479.30 924.38 479.92 931.02 C 468.92 932.06 457.90 933.03 446.86 933.70 C 446.45 927.07 445.66 920.46 445.55 913.82 Z" />
<path fill="#6f5d54" d=" M 367.66 919.80 C 387.59 918.57 407.52 917.10 427.43 915.48 C 427.75 922.04 428.04 928.60 428.23 935.16 C 408.08 936.73 387.89 937.99 367.70 938.92 C 367.51 932.55 367.57 926.17 367.66 919.80 Z" />
<path fill="#2d5770" d=" M 432.47 915.00 C 435.12 914.80 437.77 914.60 440.42 914.41 C 440.99 921.03 441.77 927.64 441.73 934.29 C 438.91 934.41 436.10 934.57 433.29 934.77 C 432.89 928.19 432.33 921.60 432.47 915.00 Z" />
<path fill="#6f5d54" d=" M 203.09 919.82 C 207.15 919.83 211.21 920.01 215.26 920.33 C 215.78 924.90 216.85 929.41 217.24 934.01 C 212.83 933.66 208.42 933.20 203.99 933.13 C 203.64 928.69 203.24 924.26 203.09 919.82 Z" />
<path fill="#8d7e6e" d=" M 220.12 920.37 C 220.21 920.38 220.39 920.39 220.48 920.40 C 220.39 920.39 220.21 920.38 220.12 920.37 Z" />
<path fill="#2d5770" d=" M 220.48 920.40 C 221.22 920.39 222.72 920.37 223.46 920.37 C 223.98 925.14 224.72 929.91 224.84 934.73 C 224.27 934.67 223.12 934.55 222.54 934.49 C 221.71 929.78 220.66 925.11 220.12 920.37 C 220.21 920.38 220.39 920.39 220.48 920.40 Z" />
<path fill="#2d5770" d=" M 322.02 921.30 C 335.59 921.52 349.13 920.48 362.70 920.23 C 362.70 926.44 362.69 932.65 362.70 938.86 C 350.70 939.84 338.62 939.88 326.58 939.73 C 325.17 933.56 323.06 927.55 322.02 921.30 Z" />
<path fill="#6f5d54" d=" M 228.44 920.50 C 243.62 920.63 258.80 921.18 273.98 921.26 C 274.91 926.88 275.80 932.51 276.46 938.18 C 260.94 937.42 245.45 936.21 229.96 935.08 C 229.47 930.21 228.97 925.35 228.44 920.50 Z" />
<path fill="#2d5770" d=" M 279.12 921.34 C 280.98 921.34 282.85 921.35 284.72 921.36 C 285.14 927.08 285.39 932.82 285.54 938.56 C 284.56 938.53 282.60 938.49 281.63 938.47 C 280.69 932.77 279.71 927.08 279.12 921.34 Z" />
<path fill="#6f5d54" d=" M 289.98 921.33 C 298.87 921.43 307.77 921.36 316.67 921.35 C 318.42 927.46 319.92 933.64 321.61 939.77 C 311.27 939.90 300.94 939.21 290.60 938.96 C 290.16 933.10 289.91 927.21 289.98 921.33 Z" />
<path fill="#2d5770" d=" M 453.59 938.12 C 462.66 937.51 471.69 936.34 480.77 935.93 C 481.54 943.00 482.82 950.01 483.45 957.10 C 483.01 964.12 483.14 971.15 482.84 978.18 C 476.80 976.47 470.20 973.80 467.15 967.91 C 461.85 958.37 457.39 948.34 453.59 938.12 Z" />
<path fill="#2d5770" d=" M 204.51 937.85 C 221.09 939.38 237.74 940.40 254.31 941.88 C 254.20 946.29 252.93 950.58 252.27 954.94 C 249.90 966.41 248.01 978.11 243.26 988.91 C 251.41 974.49 255.87 958.29 259.69 942.28 C 274.81 942.66 289.89 944.10 305.02 944.37 C 314.54 944.54 324.05 945.02 333.56 945.07 C 335.49 970.98 338.53 996.80 340.57 1022.70 C 329.02 1022.70 317.47 1022.11 305.93 1022.14 C 302.17 1021.70 301.84 1026.27 301.74 1028.96 C 300.25 1067.63 298.79 1106.30 297.63 1144.98 C 297.13 1159.69 296.71 1174.40 296.67 1189.12 C 296.56 1195.25 300.76 1200.08 303.00 1205.48 C 301.80 1206.56 300.27 1207.43 299.56 1208.96 C 299.08 1213.13 302.27 1216.32 303.88 1219.87 C 295.37 1215.65 286.81 1211.45 277.97 1207.96 C 265.91 1203.19 252.76 1202.79 239.97 1202.56 C 235.41 1202.10 230.85 1202.62 226.29 1202.81 C 221.23 1139.68 216.82 1076.51 212.12 1013.36 C 213.97 1013.05 215.85 1012.68 217.45 1011.64 C 226.19 1006.35 234.78 1000.35 241.09 992.19 C 232.51 999.52 222.32 1004.95 211.77 1008.85 C 211.66 1006.74 211.55 1004.64 211.38 1002.55 C 214.48 1004.93 217.50 1001.75 220.16 1000.21 C 228.69 994.32 238.17 987.60 240.88 976.98 C 243.70 966.22 244.83 955.01 244.63 943.90 C 243.93 943.52 242.53 942.77 241.84 942.39 C 241.03 943.29 239.63 943.98 239.62 945.37 C 238.67 956.84 238.55 968.70 234.35 979.56 C 229.54 989.22 219.26 993.94 211.32 1000.52 C 210.09 988.26 210.03 975.89 208.51 963.68 C 208.02 963.32 207.04 962.59 206.55 962.23 C 205.96 954.09 205.12 945.98 204.51 937.85 Z" />
<path fill="#2d5770" d=" M 415.98 940.98 C 422.26 940.21 428.69 940.69 434.85 939.15 C 434.96 939.71 435.18 940.84 435.29 941.40 C 440.40 954.10 446.44 966.84 455.60 977.14 C 448.08 965.60 444.25 952.19 439.93 939.24 C 442.72 938.98 445.53 938.75 448.33 938.53 C 450.30 945.15 453.30 951.40 456.13 957.69 C 458.80 963.26 461.32 968.99 465.04 973.97 C 469.54 979.22 476.40 981.49 482.76 983.62 C 482.76 985.38 482.76 987.16 482.75 988.94 C 474.12 986.82 465.37 984.26 457.91 979.28 C 464.72 986.30 474.05 989.87 482.79 993.81 C 481.57 1061.33 480.63 1128.85 479.39 1196.37 C 468.27 1198.62 456.96 1200.02 445.99 1202.99 C 429.36 1207.57 413.00 1213.00 396.54 1218.13 C 396.81 1214.01 398.72 1209.43 396.38 1205.60 C 394.73 1203.75 392.37 1202.73 390.42 1201.25 C 392.58 1193.96 395.89 1186.80 395.73 1179.03 C 396.22 1128.64 395.22 1078.25 394.95 1027.86 C 395.24 1025.63 393.36 1023.51 391.10 1023.72 C 376.00 1023.25 360.90 1023.05 345.80 1022.92 C 345.04 1019.36 344.85 1015.72 344.77 1012.10 C 347.72 1008.65 350.73 1005.23 353.15 1001.37 C 350.20 1003.08 347.26 1004.80 344.17 1006.23 C 342.47 985.75 340.40 965.29 339.07 944.79 C 342.52 944.70 345.97 944.60 349.43 944.44 C 350.72 951.56 350.44 958.85 351.29 966.04 C 351.85 975.12 353.27 984.13 353.42 993.25 C 355.18 976.99 354.05 960.57 355.10 944.28 C 375.41 943.66 395.70 942.31 415.98 940.98 Z" />
<path fill="#6f5d54" d=" M 434.85 939.15 C 436.81 937.44 437.61 941.56 435.29 941.40 C 435.18 940.84 434.96 939.71 434.85 939.15 Z" />
<path fill="#3d3d3d" d=" M 462.08 1204.58 C 467.95 1203.68 473.82 1201.75 479.81 1202.34 C 486.63 1205.27 492.98 1209.20 499.59 1212.58 C 510.64 1218.59 521.96 1224.26 532.04 1231.87 C 535.29 1234.43 539.68 1236.92 539.90 1241.56 C 525.66 1243.42 511.40 1245.95 496.98 1245.52 C 486.27 1245.54 475.61 1244.38 464.91 1244.27 C 450.78 1243.01 436.61 1242.54 422.49 1241.21 C 415.14 1240.23 407.57 1240.58 400.39 1238.53 C 398.79 1238.08 397.76 1236.55 397.57 1234.97 C 397.07 1231.10 397.28 1227.20 397.31 1223.33 C 407.06 1219.98 416.92 1217.01 426.74 1213.91 C 438.39 1210.33 450.03 1206.59 462.08 1204.58 Z" />
<path fill="#3d3d3d" d=" M 233.01 1209.01 C 235.30 1207.34 238.26 1207.66 240.93 1207.70 C 252.91 1208.56 265.58 1207.73 276.63 1213.32 C 285.51 1217.86 295.35 1220.78 303.35 1226.89 C 302.58 1231.07 303.17 1237.28 298.14 1238.93 C 275.43 1247.17 250.71 1246.51 227.02 1243.94 C 214.64 1243.30 202.24 1242.35 189.98 1240.46 C 190.58 1237.30 193.74 1235.92 196.03 1234.13 C 208.32 1225.69 220.61 1217.28 233.01 1209.01 Z" />
<path fill="#3d3d3d" d=" M 280.10 1249.36 C 288.13 1247.70 296.58 1246.61 303.73 1242.31 C 303.64 1244.06 303.55 1245.83 303.48 1247.61 C 280.21 1257.04 254.64 1257.66 229.92 1256.41 C 218.23 1255.22 206.66 1253.14 195.03 1251.47 C 191.65 1251.33 190.21 1247.80 189.08 1245.14 C 192.61 1246.31 196.16 1247.52 199.93 1247.51 C 214.27 1249.14 228.70 1249.58 243.05 1251.07 C 255.42 1251.63 267.90 1251.75 280.10 1249.36 Z" />
<path fill="#3d3d3d" d=" M 401.11 1244.57 C 415.30 1246.82 429.70 1247.10 443.98 1248.49 C 451.95 1249.46 459.99 1249.27 467.96 1250.17 C 481.32 1250.26 494.63 1251.98 508.00 1251.14 C 518.91 1250.00 529.81 1248.83 540.66 1247.21 C 540.69 1249.12 540.74 1251.04 540.80 1252.98 C 535.92 1254.15 530.90 1254.31 525.95 1254.85 C 497.69 1258.07 469.14 1257.41 440.91 1254.20 C 428.05 1252.32 415.05 1251.59 402.19 1249.73 C 401.80 1248.01 401.45 1246.28 401.11 1244.57 Z" />
</svg>
